<svg xmlns="http://www.w3.org/2000/svg" width="18.95" height="37.48" viewBox="0 0 18.95 37.48"><title>arrow-right</title><path d="M.55,38c.15.09.52.21.47.12l-.6-.28Z" transform="translate(-0.4 -0.7)" fill="#202020"/><path d="M1.86,38a4.87,4.87,0,0,0-1.35-.64c.56.3.31.22,1,.57,0,.09-.24,0-.47-.06.15.08-.17.05.2.23s.57,0,.22-.26A2.19,2.19,0,0,1,1.86,38Z" transform="translate(-0.4 -0.7)" fill="#202020"/><path d="M5.41,32.39h0Z" transform="translate(-0.4 -0.7)" fill="#202020"/><path d="M7.79,29.21s0,.08.09.12A.22.22,0,0,0,7.79,29.21Z" transform="translate(-0.4 -0.7)" fill="#202020"/><path d="M8.77,29.14s0,0-.06,0S8.8,29.17,8.77,29.14Z" transform="translate(-0.4 -0.7)" fill="#202020"/><path d="M5.41,32.39h.24C5.46,32.28,5.48,32.36,5.41,32.39Z" transform="translate(-0.4 -0.7)" fill="#202020"/><path d="M.69,36.6l.14.12,0-.08Z" transform="translate(-0.4 -0.7)" fill="#202020"/><path d="M5.13,34.21l0,0,.24.13Z" transform="translate(-0.4 -0.7)" fill="#202020"/><path d="M4.67,35.48a4.77,4.77,0,0,0-.7-.35,1,1,0,0,1,.33.21Z" transform="translate(-0.4 -0.7)" fill="#202020"/><path d="M2.93,37.12l.06.07Z" transform="translate(-0.4 -0.7)" fill="#202020"/><path d="M5.65,33.39l.19.08Z" transform="translate(-0.4 -0.7)" fill="#202020"/><path d="M.85,3.2l.1,0C.89,3.18.85,3.19.85,3.2Z" transform="translate(-0.4 -0.7)" fill="#202020"/><polygon points="2.73 0.26 2.77 0.28 3.08 0.2 2.73 0.26" fill="#202020"/><path d="M10.05,28.72h0C10.07,28.79,10.07,28.77,10.05,28.72Z" transform="translate(-0.4 -0.7)" fill="#202020"/><path d="M15,19.33a1.27,1.27,0,0,1-.73.23,1,1,0,0,0-.69.3C13.73,19.74,14.88,19.63,15,19.33Z" transform="translate(-0.4 -0.7)" fill="#202020"/><path d="M.78,36.59a.13.13,0,0,1,0-.06S.76,36.57.78,36.59Z" transform="translate(-0.4 -0.7)" fill="#202020"/><path d="M13.53,19.86h0l0,0Z" transform="translate(-0.4 -0.7)" fill="#202020"/><path d="M11.66,26.71l-.18-.17Z" transform="translate(-0.4 -0.7)" fill="#202020"/><path d="M9.67,27.46h.09S9.68,27.45,9.67,27.46Z" transform="translate(-0.4 -0.7)" fill="#202020"/><path d="M12.1,25.38c.06,0,.13.06.13,0l-.06,0C12.2,25.38,12.2,25.42,12.1,25.38Z" transform="translate(-0.4 -0.7)" fill="#202020"/><path d="M13.71,24.45l-.15-.05,0,.05Z" transform="translate(-0.4 -0.7)" fill="#202020"/><path d="M1.94,6.65c.15-.06.31-.12.48-.17C2,6.59,1.85,6.45,1.94,6.65Z" transform="translate(-0.4 -0.7)" fill="#202020"/><path d="M1,36.71a.61.61,0,0,1-.21-.12.11.11,0,0,0,0,0Z" transform="translate(-0.4 -0.7)" fill="#202020"/><path d="M9.23,22l.08.05Z" transform="translate(-0.4 -0.7)" fill="#202020"/><path d="M5.41,15.34H5.33S5.35,15.37,5.41,15.34Z" transform="translate(-0.4 -0.7)" fill="#202020"/><path d="M9.31,21.94l.35.23-.12-.09Z" transform="translate(-0.4 -0.7)" fill="#202020"/><path d="M2.42,6.48Z" transform="translate(-0.4 -0.7)" fill="#202020"/><path d="M.84,5.55c0,.18.72-.08,1.14-.14.25.16-.51.22-.86.38.22.09.91,0,.9.14A1.1,1.1,0,0,1,1.71,6c.61,0,.13.42.89.41l-.18.07a8.11,8.11,0,0,1,1-.26c0,.07.49,0,0,.18,0-.06-.19,0-.34,0l.22,0c-.65.24-.26-.06-.76.06.26.12.87.17.71.34C2.6,7,3,6.59,2.42,6.9l.2-.25c-1,.4,0-.14-1,.27-.13.3.41.2.28.51.38,0,.54-.15.92-.19.75.2-1.58.71-.64.76.46,0,1.3-.23.91.08l-.76.13c0,.27,1.11-.14.68.25-.31,0-.3-.13-.38-.07-.54.33.45,0,.49.14l-.65.21c.17.24.74.41.95.67a1.44,1.44,0,0,0-.6.18c.43.28.18.84-.08,1.35l.6,0S3.08,11,3,11c-.16.22.35-.12.59-.13.07.07-.27.23-.46.23.57.1,1.26.34.8.84H3.7c-.13.3,1.21-.23.79.17H4.38c0,.56.68.79,0,1.53.78-.33-.08.62,1,.08-.37.53-.59.56-.72,1.13,0,.12.71-.25.89-.21L5,15l.65-.2-.57.49.21,0c0-.07.17-.25.32-.34.34,0-.1.64-.34.83l.71.08a1.07,1.07,0,0,1-.49.17c.66-.17-.49.43.12.27a2.07,2.07,0,0,1,.4-.28c-.23.31,0,.57.16.56l-.35.25c.08.28.52.31.69.56a1.8,1.8,0,0,1,.81-.6l-.5.42c.36-.19.14-.22.61-.42,0,.14-.55.51-.76.58l.27,0c-.15.12-.25.16-.46.3.36-.2-.38.57.23.23l-.15.12c.18.26.44.23.62.44.47-.32.42-.17.84-.36,0,.26-.27.7-.09.87.33,0,.42-.23.74-.36-.42.3-.23.48-.61.59a1.28,1.28,0,0,0,.88.34,1.37,1.37,0,0,1,.34-.34c.11,0-.07.26-.28.4H9c.85-.12-.51,1.79.57,1.41l-.05,0,.17,0L9.8,21l.27-.12c0,.09-.33.21-.56.42.37-.22.4-.15.36-.09s-.11.12.22,0c-.74.33-.72.31-.58.31s.39,0-.22.09l.46-.07c.47-.06-.25.05-.35.07l.67-.1c.51,0,.2.16-.36.17l-.75,0c-.15,0,3.24.27,1.67.18l-1.1-.12c.65.08.55.11.47.13s-.16,0,.2.18a4.19,4.19,0,0,1-.43-.14c-.63-.17-.07,0,.37.2-.07,0-.42-.15-.66-.23s.64.3.1.08l-.2-.09c.24.11-.1,0,.48.27-.3-.12.14.2-.2,0,.51.4-.31-.15.38.43-.72-.6-.61-.47-.36-.12-.18-.21-.21-.19-.45-.49,0,0,0,0,.09.12s.13.23.28.41c-.89-.69.06,1-.92,0a6.17,6.17,0,0,1-.34,1.63c-.59-.68.29-.36-.35-1.07-.06.56.29,1.26-.13,1.37-.16,0-.23-.32-.31-.46,0,.54-.61.49-.5,1.07a.43.43,0,0,1-.12-.22c0,.07-.21,0,.09.3l0-.12c.5.34.71,1,.94,1.26-.79-.88-.43.05-1.41-1.09a1.19,1.19,0,0,0,.35.44c-.11,0-.24-.1-.43-.36,0,.34.39.56.24.72a4.75,4.75,0,0,1-.34-.39c.22.34.44.67.2.7-.09-.08-.22-.17-.18-.21-.17.28.45,1.06,0,1.09-.62-.61-.3-.08-.9-.52l.06.28.34.16c-.11.13.24.56,0,.53l-.18-.28-.07.32.33,0c.22.36.78.55.48.59,0-.08-.09.12-.49-.07h0c.16.2.32.41.1.4s-.66-.49-.81-.57c.47.42-.06.41.43.86a4,4,0,0,0-.5-.37l.38.34a1,1,0,0,1-.5-.25c-.2.13.83.46.34.45,0,0-.09-.07-.13-.15-.33.11,0,.6-.33.67-.68-.33-.05-.28-.63-.54-.07.38.39,1.08.08,1.28h.1c.9.56-.57-.05-.22.35a1.77,1.77,0,0,0-.39-.27c-.26.12,0,.54.14,1l-.22-.16c-.29,0-.29.25-.47.32.23.16.15.22.53.35-1.59-.29.36,1.11-1,.91,0,0-.17-.2-.19-.17l.09.41a2.39,2.39,0,0,0,.63.17c.23.15.38.32.35.4a1.55,1.55,0,0,0-.94-.36c.14,0,.27.13.4.19-.82-.19.84.41.24.39l-.22-.11c.08.13.34.34.23.4-.5-.19-.18-.19-.58-.38,0,.14.81.65.28.55-.12-.11-.08-.19-.2-.3-.63-.13-.49,0-.62,0h0l-.35.1H2.1c1.21.71.1.42.85,1-.71-.53-.44-.22-1-.47a1.35,1.35,0,0,1-.53-.1c.41.29-.42,0,.18.44-.19-.07-.07.09-.51-.11.09.18.33.09.55.2.53.45-.94.16-.2.79.25.39.84.67,1.06,1a1.45,1.45,0,0,1-.64-.32c-.32,0-.31.13-.14.33a1.46,1.46,0,0,0-.51-.16c0,.11.64.32.32.34s-.51-.25-.7-.37c.13.17.43.41.55.59a2,2,0,0,1-.65-.37,1.16,1.16,0,0,0,.65.67h.21s-.44-.14-.52-.21c-.35-.26.24-.1.42,0l.09.12c1.1.33-.05-.39.07-.53l.76.37-.59-.42a1.79,1.79,0,0,1,.75.31c.43,0-.24-.21.23-.14a.23.23,0,0,1,.13,0l-.18-.2c.15.09.55.2.41.22.53,0-.45-.55.17-.4l0,0c-.15-.39-.56-.25-1.14-.73l1.45.42-.55-.26s.1-.06.32,0c-.35-.26-.26-.08-.6-.29.57.07-.08-.48.83-.14-.41-.23-.38,0-.62-.28,1,.36-.09-.24.4-.18.48.25.17.26.67.32-.81-.43.29-.17.17-.34-.67-.29-.18-.35-.33-.62.22.1.51-.17.83-.22l.11,0c-.66-.33-.46-.44-.54-.63a2.24,2.24,0,0,1,.7.43l0-.11a.82.82,0,0,1-.34-.33l.49.26c0-.16-.45-.58,0-.61-.46-.23-1.37-.46-1.57-.82a3.37,3.37,0,0,1,.76.42s-.18-.17,0-.15l.37.29c.23,0-.32-.22-.25-.27.36.17.28.07.56.22,0,0-.18,0,0,.08a1,1,0,0,1,.64.06c-.2-.09-.48-.23-.49-.31s.45.16.67.16c-.23-.16.07-.12-.45-.39,0,0,.27.07.42.13-.19-.19.11-.39-.49-.59h0l0,0h0c-.39-.52.57-.35.48-.72l.18.1c-.12-.26.06-.39-.25-.71,0,0,.37.08.56.22-.06-.18-.24-.31.13-.3.23.28.29.12.15.24.23-.05.52.08.15-.35.4.32.61.23.52.09l-.37-.1c0-.11.06-.15.14-.19l.54.38c.84.17-.84-1.24.43-.7-.34-.33-.37,0-.78-.4.16-.08,1,.33,1.06.3.41.05-.69-.71-.36-.75-.21-.11-.74-.46-.82-.73.16-.07.91.44,1,.63,0,0-.08,0-.14,0a.49.49,0,0,0,.33.3L8,29.48c.24.08.34-.09.62.18a.48.48,0,0,0-.43-.28c.39.06.19-.23.49-.24-.12-.06-.36-.21-.34-.23.41-.05-.28-.38-.23-.6.35.14.64.57.53.22a1.38,1.38,0,0,1,.62.54c-.24-.42.44-.05.57-.06l.08.19c0-.11,0-.14,0-.17l-.39-.28a.38.38,0,0,1,.28.12A11.2,11.2,0,0,1,9,28c.23.1,0-.34.44.06-.31,0,.49.4.44.61,0-.08,0-.11.1-.09a.38.38,0,0,1,.11.12c.55.23-.47-.54-.31-.7.24.26.53.42.49.34s-.46-.37-.6-.62c.3.09,0-.25,0-.28l-.16,0c-.23-.27-.14-.29-.15-.44.2.19.07.2.18.26-.36-.52.64.27.46-.14.22.13.47.48.62.55-.19-.45.47.22.33-.18a1.29,1.29,0,0,1-.51-.64c0,.14,0,.3,0,.45l-.34-.64c-.07.06.07.35,0,.33a1.21,1.21,0,0,0-.44-.51c.59.43-.1-.49.35-.23l.79.88c.51.25-.12-.7.29-.66l-.2-.1c-.28-.38.09-.17,0-.37a3.5,3.5,0,0,0,.56.55c-.19-.23.17-.11-.3-.74l.42.33c.31,0-.47-1.05-.2-1.08.2.39.44.55.51.89.06,0,.15,0,0-.24.19.17-.05-.63.27-.39-.07-.16-.34-.48-.22-.52a1.11,1.11,0,0,1,.13.14c-.13-.14,0-.29-.43-.56.57.37.79.23.95.08s.28-.29,1-.05a1.41,1.41,0,0,1,.39-.55c.13.07.24.1.15.1.77,0-1.23-.66-.44-.6,1,.23.3.25.72.31.88.31.95.23.94.11s-.13-.27.57-.17l0,.06c.89.08-.26-.43.16-.53a2.91,2.91,0,0,0,.33.07c-.9-.33-1-.52-1.11-.67a9.81,9.81,0,0,0,1.42.23c0-.07-1.59-.21-1.67-.33.6,0,1.23,0,2.36.12l-.18.12c1.52.1.28-.15.64-.18l.62.07c.1-.1-.26-.19-.59-.26a3.3,3.3,0,0,1-.42-.1c-.09,0-.07-.07-.07-.11h-.52C16,22,16.23,22,16.54,22s.69,0,0-.07l2,0-.7-.11c-.78-.07-1.71-.16-2.09-.23,1.32,0,2.31.15,3.27.26l.38.05a.05.05,0,0,0,0,0,6,6,0,0,0-1.67-.25c.25,0,.84.07.59.1a13.34,13.34,0,0,1-2.92-.3c1.79-.05,1.8-.15,1.65-.28s-.43-.28.56-.49c-.92-.1-1.11-.27-1.3-.48a1.69,1.69,0,0,0-.82-.66c-1.26.64-.28-.1-1.75.46-.22,0-.24-.08-.17-.13a3.48,3.48,0,0,0,.4-.6c.26-.25.42-.05.7-.19-.27-.27.38-.35.43-.68-.37.26-.74.25-.8,0a3.54,3.54,0,0,1-.23.48c-.55,0-.38-.17-.24-.4s.26-.46-.21-.45l.44-.12a.78.78,0,0,1-.3-.13l-.17-.1-.1,0c-.15,0-.36,0-.79.27a1.55,1.55,0,0,1,.44-.36c-.06-.31-1.25.1-.92-.48l.26-.16c-.11,0-.52.25-.32,0,.1-.07.25-.16.25-.19s-.53.16-.43,0l.31-.13c.13-.5-1,0-1.31-.09.73-.5.8-.9.83-1.1l.11-.07c-.16-.41-1-.18-1.54-.3.62-.77-.19-.92,0-1.58a1.45,1.45,0,0,1-.66.42c.08-.19-.63.18,0-.31v0c.58-.55.34-.53.28-.63l-.85.63c.52-.6.28-.65,0-.73s-.49-.12.05-.56c-.27.08-.32,0-.58.07l.49-.29c0-.25,0-.37-.21-.53l.38-.15c0-.13-1.53.62-1.63.49l.74-.42c-.13-.25.42-.78-.38-.71a1.3,1.3,0,0,1,.39-.11c0-.13.34-.66-.72-.17.7-.3,0-.28-.4-.31L7.78,10c-.71.14-.89.2-1.14.1.05-.07.4-.19.29-.09.22-.23-.54.08-.32-.19L7,9.78c0-.15-.19-.07-.61,0-.24,0,0-.32.51-.5-.29.08-.71.13-.6,0a1,1,0,0,1,.36-.08c.28-.36-.74-.16-.26-.49a1.86,1.86,0,0,0,.31-.13c0,.2.06.36,0,.35a4.78,4.78,0,0,1,1.24-.43c-.41,0-1.27,0-1.09-.17L7,8.24h.06c0-.05,0-.06-.11-.07.07-.07.12-.12.11-.16.4-.14.17-.24.17-.32-.54.16-.48,0-.9.26,0,0,.07,0,.1,0h0a1.5,1.5,0,0,1,.09.18c-.29,0-.54,0-.26-.15l-.91.14c.73-.32,1.08-.64,1.54-.8-.37-.15-.36-.5-1.42-.39-.14,0,.28-.16.43-.23s.11.07.26,0c-.29-.07-.2-.38-.93-.24.28-.25.69-.06.51-.27l.23,0c1-.75-2-.34-.67-1.23a.6.6,0,0,1-.24.12c.51-.76-.9-1.12,0-2C5.25,3,4.79,3.06,4.41,3L5,2.86l-.72,0c-.56-.13,1.33-.8.31-.9l-.38.14c0-.13-.33-.31.13-.4-.08,0-.42.06-.23,0l.31-.08L3.8,1.41C4,1.13,5,1.12,5,.77a2.44,2.44,0,0,0-1.17,0S3.67,1,3.36,1L3.17,1a7.34,7.34,0,0,0-2.39.85l.59,0L1,2,.89,1.88c-.39.2,0,.15.25.14a1.85,1.85,0,0,0-.46.21l.91-.06c-.35.11-.72.11-.89.27.43,0,.77-.28,1.07-.22-.38.2-.72.26-.35.27a1.34,1.34,0,0,1-.49.08c.3,0,.17.2.67.13-.49.22.2.27-.65.48a1.71,1.71,0,0,1,.76.06c-1.06.1,0,.33-1.09.56,1-.11.51.31,1.07.39-.08,0-.23,0-.19,0-.05.13-.32.23-.48.34a5,5,0,0,1,1.48,0c-.7.31-.92.12-1.61.33.61-.15.67.1,1.17-.07a2.81,2.81,0,0,1-.82.35c1-.2.19.06.8,0-.44.26-.89.24-.56.35A1.1,1.1,0,0,1,.84,5.55Zm2.72,3.8h0l-.06-.08Zm.11.36a.3.3,0,0,0,0-.16c.18-.07.37-.12.37-.08S3.81,9.61,3.67,9.71ZM7.19,7.87c.09,0,0,.08-.12.12A.23.23,0,0,0,7,7.92H6.91Z" transform="translate(-0.4 -0.7)" fill="#202020"/><path d="M6.45,8h0L6.3,8l.17,0Z" transform="translate(-0.4 -0.7)" fill="#202020"/><path d="M5.31,32.39h0l-.08,0Z" transform="translate(-0.4 -0.7)" fill="#202020"/><polygon points="4.52 14.41 4.64 14.33 4.51 14.37 4.52 14.41" fill="#202020"/><path d="M2.72,33.31l-.14,0Z" transform="translate(-0.4 -0.7)" fill="#202020"/><path d="M2.25,34.05l-.23,0A.77.77,0,0,0,2.25,34.05Z" transform="translate(-0.4 -0.7)" fill="#202020"/><path d="M1.74,34.55l.21.11H2Z" transform="translate(-0.4 -0.7)" fill="#202020"/><path d="M6.93,24.88v0C6.9,24.72,6.9,24.78,6.93,24.88Z" transform="translate(-0.4 -0.7)" fill="#202020"/><path d="M5.84,28.26A1.79,1.79,0,0,1,5.69,28C5.62,28,5.58,28.07,5.84,28.26Z" transform="translate(-0.4 -0.7)" fill="#202020"/><polygon points="8.82 21.29 8.82 21.3 8.83 21.29 8.82 21.29" fill="#202020"/><path d="M5.78,27.9c-.13,0-.13,0-.09.12S5.82,28,5.78,27.9Z" transform="translate(-0.4 -0.7)" fill="#202020"/><path d="M.44,37.13l0,0,.09,0Z" transform="translate(-0.4 -0.7)" fill="#202020"/><path d="M.49,37.19l.05.05S.54,37.21.49,37.19Z" transform="translate(-0.4 -0.7)" fill="#202020"/><path d="M.64,37.36l-.1-.12S.5,37.29.64,37.36Z" transform="translate(-0.4 -0.7)" fill="#202020"/><path d="M1,36.4.8,36.32Z" transform="translate(-0.4 -0.7)" fill="#202020"/><path d="M1,36.13c-.06,0-.46,0-.37.12l.14.07C.54,36.17,1.33,36.32,1,36.13Z" transform="translate(-0.4 -0.7)" fill="#202020"/><path d="M3.78,36.06l-.23.13c.21.05.5.11.51.23C4.76,36.41,3.59,36.28,3.78,36.06Z" transform="translate(-0.4 -0.7)" fill="#202020"/><path d="M4.33,35.56c0,.15.29.13.4.18A.43.43,0,0,0,4.33,35.56Z" transform="translate(-0.4 -0.7)" fill="#202020"/><path d="M6.42,31.31l.43.26C6.84,31.46,6.68,31.47,6.42,31.31Z" transform="translate(-0.4 -0.7)" fill="#202020"/><polygon points="4.24 28.44 3.92 28.35 4.3 28.64 4.24 28.44" fill="#202020"/><polygon points="7.6 29.96 7.64 30.03 7.56 29.81 7.6 29.96" fill="#202020"/><path d="M13.89,24.93l-.64-.38C13.28,24.67,13.91,25.13,13.89,24.93Z" transform="translate(-0.4 -0.7)" fill="#202020"/><path d="M18.22,22.15c.7,0,1.26,0,.56-.1C18.63,22.1,18.05,22.12,18.22,22.15Z" transform="translate(-0.4 -0.7)" fill="#202020"/><polygon points="9.21 12.32 9.42 12.24 9.21 12.26 9.21 12.32" fill="#202020"/></svg>