<svg xmlns="http://www.w3.org/2000/svg" width="16.5" height="35.2" viewBox="0 0 16.5 35.2"><title>arrow-left</title><path d="M19,3.38c-.12-.12-.43-.36-.41-.26l.49.45Z" transform="translate(-2.54 -2.91)" fill="#202020"/><path d="M17.74,3a5.35,5.35,0,0,0,1.1,1c-.45-.46-.23-.31-.77-.85,0-.1.23.05.42.21-.12-.12.17,0-.13-.28s-.54-.18-.28.17A3.17,3.17,0,0,1,17.74,3Z" transform="translate(-2.54 -2.91)" fill="#202020"/><path d="M13,7.21l.09,0A.18.18,0,0,0,13,7.21Z" transform="translate(-2.54 -2.91)" fill="#202020"/><path d="M10.26,10s0-.08-.08-.12A.2.2,0,0,0,10.26,10Z" transform="translate(-2.54 -2.91)" fill="#202020"/><path d="M9.28,10.08h.06C9.28,10.06,9.24,10.05,9.28,10.08Z" transform="translate(-2.54 -2.91)" fill="#202020"/><path d="M13,7.21l-.23,0C12.93,7.3,12.92,7.22,13,7.21Z" transform="translate(-2.54 -2.91)" fill="#202020"/><path d="M18.44,4.63a.35.35,0,0,0-.1-.15l0,.08Z" transform="translate(-2.54 -2.91)" fill="#202020"/><path d="M13.65,5.53l0,0-.19-.19Z" transform="translate(-2.54 -2.91)" fill="#202020"/><path d="M14.4,4.44A4.33,4.33,0,0,0,15,5a1.17,1.17,0,0,1-.26-.29Z" transform="translate(-2.54 -2.91)" fill="#202020"/><path d="M16.48,3.43l0-.08Z" transform="translate(-2.54 -2.91)" fill="#202020"/><path d="M13,6.19l-.17-.11Z" transform="translate(-2.54 -2.91)" fill="#202020"/><path d="M18.52,34.45l-.08.06Z" transform="translate(-2.54 -2.91)" fill="#202020"/><polygon points="14.51 34.39 14.47 34.39 14.21 34.57 14.51 34.39" fill="#202020"/><path d="M8,10.58H8C7.93,10.52,7.93,10.54,8,10.58Z" transform="translate(-2.54 -2.91)" fill="#202020"/><path d="M3,21.12c.49-.36.71,0,1.24-.43C4,20.81,3.35,20.77,3,21.12Z" transform="translate(-2.54 -2.91)" fill="#202020"/><path d="M18.36,4.61a.05.05,0,0,1,0,0S18.37,4.63,18.36,4.61Z" transform="translate(-2.54 -2.91)" fill="#202020"/><path d="M4.27,20.69h0l0,0Z" transform="translate(-2.54 -2.91)" fill="#202020"/><path d="M6.45,13l.21.14A.92.92,0,0,0,6.45,13Z" transform="translate(-2.54 -2.91)" fill="#202020"/><path d="M8.39,11.85h0Z" transform="translate(-2.54 -2.91)" fill="#202020"/><path d="M6.39,14.33s-.12-.05-.08,0l.06,0C6.32,14.33,6.3,14.3,6.39,14.33Z" transform="translate(-2.54 -2.91)" fill="#202020"/><path d="M5.68,15.21l.11.06v0Z" transform="translate(-2.54 -2.91)" fill="#202020"/><path d="M16.46,31.78l-.4.31C16.39,31.86,16.6,31.92,16.46,31.78Z" transform="translate(-2.54 -2.91)" fill="#202020"/><path d="M18.2,4.43a.64.64,0,0,1,.16.18.09.09,0,0,0,0-.05Z" transform="translate(-2.54 -2.91)" fill="#202020"/><path d="M9.82,17.14l-.18.09A.24.24,0,0,0,9.82,17.14Z" transform="translate(-2.54 -2.91)" fill="#202020"/><path d="M12.11,25h.08S12.17,24.92,12.11,25Z" transform="translate(-2.54 -2.91)" fill="#202020"/><path d="M9.37,17.7A1.51,1.51,0,0,0,9,17.53l.1.11Z" transform="translate(-2.54 -2.91)" fill="#202020"/><path d="M16.06,32.1h0Z" transform="translate(-2.54 -2.91)" fill="#202020"/><path d="M17.81,32.34c-.08-.14-.65.33-1,.54-.29-.06.4-.38.68-.64-.23,0-.85.29-.88.19a1.14,1.14,0,0,1,.27-.17c-.57.21-.24-.32-.94,0l.14-.11c-.3.22-.61.42-.84.56-.05,0-.47.14-.08-.15,0,.05.18,0,.32-.11l-.22,0c.54-.43.26,0,.69-.31-.27,0-.86.15-.76-.06.56-.39.35.11.77-.35l-.12.3c.83-.7,0,.13.9-.59,0-.31-.44,0-.4-.35-.35.16-.47.31-.81.47-.77.07,1.29-1.14.39-.86-.42.18-1.16.62-.87.23l.68-.36c-.06-.23-1,.47-.7,0,.28-.12.32,0,.37-.05.43-.46-.43.13-.49,0l.56-.38c-.22-.15-.79-.12-1-.29a1.6,1.6,0,0,0,.53-.32c-.48-.12-.33-.67-.15-1.16l-.57.19s.2-.19.31-.22c.13-.22-.32.19-.55.25-.07,0,.24-.26.41-.31-.54.06-1.26,0-.84-.55l.17,0c.11-.28-1.14.43-.76,0l.1,0c0-.49-.69-.61-.1-1.34-.76.38.1-.56-.92,0,.37-.51.59-.56.74-1.06,0-.11-.7.27-.86.24l.52-.33-.63.21.58-.46h-.19a1.05,1.05,0,0,1-.34.31c-.32,0,.14-.57.41-.75l-.66-.05a1.26,1.26,0,0,1,.49-.16c-.65.16.52-.39-.07-.24a2.32,2.32,0,0,1-.42.25c.25-.28.13-.47-.09-.52l.37-.21c-.07-.31-.52-.42-.71-.7a1.62,1.62,0,0,1-.83.57l.51-.41c-.37.18-.14.23-.62.41,0-.15.56-.5.77-.56h-.27a4.49,4.49,0,0,1,.47-.28c-.37.18.37-.6-.26-.27l.16-.12c-.21-.29-.48-.28-.67-.49-.45.34-.42.18-.83.39,0-.27.22-.73,0-.89-.33,0-.41.26-.72.41.39-.34.2-.5.56-.63a1.16,1.16,0,0,0-.88-.25,1.66,1.66,0,0,1-.32.36c-.11,0,.06-.26.25-.41l.05,0c-.43.1-.31-.33-.23-.73,0-.1,0-.2.05-.29s.06-.11.06-.15,0,0-.28.12l.05,0a4.66,4.66,0,0,1-.56.22c0-.09.36-.18.6-.39-.74.31-.2-.05-.43,0l-.18,0c.76-.32.74-.3.61-.3s-.39,0,.22-.09L8,19.14c-.47.05.25,0,.36-.05l-.68.07c-.21,0-.28-.05-.23-.08S7.8,19,8,19a4.71,4.71,0,0,1,.8,0c.09,0-2.1-.41-1.08-.27l.71.19c-.51-.17-.29-.21-.25-.24s0-.08-.16-.27l.27.22c.21.12.17.18.17,0a.92.92,0,0,0-.3-.44c.08,0,.28.21.47.29s-.32-.58.09-.33a.39.39,0,0,1,.12.16c-.14-.2.24-.2-.23-.5.32,0,0-.43.37-.34-.42-.46.43-.05-.23-.63.7.58.77.21.51-.14.19.2.28.1.55.37.07-.11,0-.31-.36-.59,1,.49-.37-.92.79-.16a4.31,4.31,0,0,1-.1-1.51c.69.58-.18.36.57,1-.08-.5-.56-1.13-.18-1.25.15,0,.27.28.37.4-.08-.5.47-.45.28-1a.75.75,0,0,1,.15.2c0-.07.18,0-.14-.28l0,.12c-.52-.3-.82-1-1.06-1.17.85.82.41,0,1.47,1a1.19,1.19,0,0,0-.37-.4c.09,0,.23.09.44.33,0-.3-.43-.52-.3-.66a4.27,4.27,0,0,1,.35.37c-.24-.32-.48-.64-.25-.66s.22.17.19.2c.13-.25-.51-1,0-1,.62.61.29.1.88.55l-.07-.26-.32-.18c.1-.1-.25-.54,0-.49l.17.28.06-.3-.32-.06c-.21-.35-.74-.58-.46-.59,0,.07.1-.11.49.11h0c-.14-.2-.29-.42-.08-.38s.63.53.76.62c-.44-.45.08-.37-.39-.86a3.78,3.78,0,0,0,.48.41l-.36-.36a1,1,0,0,1,.47.3c.2-.1-.78-.55-.31-.48a1.62,1.62,0,0,1,.12.16c.31-.05,0-.56.37-.57.62.42,0,.26.56.6.09-.32-.29-1.07,0-1.19h-.1c-.8-.7.54.15.25-.28a2.77,2.77,0,0,0,.34.33c.27-.06.07-.5,0-1l.19.2c.27,0,.31-.17.49-.19-.18-.2-.1-.23-.44-.45,1.47.66-.16-1.12,1.07-.6,0,0,.13.23.15.21V7.2a2.87,2.87,0,0,0-.57-.32c-.19-.2-.3-.4-.25-.46.15.3.58.46.82.58-.12-.08-.23-.2-.34-.28.74.39-.71-.61-.14-.43l.18.16c-.05-.14-.25-.4-.14-.43.44.31.14.23.48.51,0-.12-.63-.83-.15-.58.08.13,0,.19.12.33.57.29.45.18.59.17h0l.35,0-.16-.07c-1-1,0-.41-.58-1.14.54.7.37.34.83.73a1.35,1.35,0,0,1,.48.24c-.32-.38.4.11-.07-.44.16.11.09-.07.45.25,0-.2-.28-.19-.46-.35-.4-.57.92.14.39-.65-.14-.43-.63-.88-.74-1.26a1.49,1.49,0,0,1,.52.49c.3.08.32,0,.22-.25a1.7,1.7,0,0,0,.43.3c0-.1-.51-.49-.21-.41a5.94,5.94,0,0,1,.55.57c-.07-.2-.28-.52-.35-.72a2.1,2.1,0,0,1,.51.55,1.18,1.18,0,0,0-.42-.82l-.21-.06c0-.05.38.27.43.36.26.35-.24,0-.4-.11l0-.14c-.95-.65-.07.37-.22.46L17,3.42l.43.57a1.89,1.89,0,0,1-.61-.52c-.39-.17.16.26-.26,0a.26.26,0,0,1-.11-.09l.12.25c-.12-.13-.47-.36-.33-.34-.5-.14.28.65-.26.32l0-.05c0,.41.46.41.88,1L15.6,3.81l.45.4s-.1,0-.29-.13c.26.34.22.15.49.44-.52-.23-.05.47-.82-.11.33.33.36.12.52.44-.85-.62,0,.25-.43.05-.4-.37-.1-.29-.55-.49.66.64-.32.08-.25.27.56.46.09.38.16.67-.18-.16-.53,0-.84,0l-.1-.08c.56.49.34.54.37.74a2.25,2.25,0,0,1-.57-.59l-.07.1a.78.78,0,0,1,.26.39l-.41-.37c-.08.15.3.66-.12.59.39.33,1.22.77,1.34,1.15a2.91,2.91,0,0,1-.64-.57s.13.2,0,.15l-.31-.36c-.22,0,.27.28.19.32-.31-.25-.25-.14-.49-.34,0,0,.17,0,.07-.07A1.08,1.08,0,0,1,13,6.19c.17.14.41.34.41.42s-.4-.26-.62-.31c.19.2-.1.1.36.48,0,0-.25-.13-.39-.22.15.23-.19.35.36.67h.05v0h0c.29.58-.62.23-.59.6l-.15-.12c.07.26-.13.36.13.72,0,0-.35-.14-.52-.3,0,.19.2.34-.17.27-.19-.31-.26-.16-.11-.26-.24,0-.5-.15-.19.33-.36-.37-.58-.31-.51-.15l.36.14c0,.11-.08.14-.16.17l-.5-.45c-.83-.25.7,1.33-.51.68.31.36.37.06.74.46-.16.07-1-.41-1-.37-.41-.07.64.76.31.77.2.12.71.5.78.77-.16.06-.89-.48-1-.67s.08,0,.14,0a.53.53,0,0,0-.31-.32l.17.16c-.24-.09-.35.09-.62-.19a.45.45,0,0,0,.42.29c-.39-.06-.2.23-.5.24.12.06.35.21.33.23-.41,0,.27.39.23.61-.35-.14-.65-.58-.54-.23a1.34,1.34,0,0,1-.63-.53c.25.43-.44.07-.58.1l-.08-.19c0,.11,0,.15,0,.19l.41.25a.34.34,0,0,1-.29-.1,9,9,0,0,1,.91.82c-.24-.09.05.34-.45,0,.31,0-.51-.38-.47-.6,0,.08,0,.11-.09.11A.36.36,0,0,1,8,10.58c-.58-.17.49.53.33.7C8,11,7.72,10.9,7.76,11c.06-.07.49.34.65.58-.31-.06.05.25,0,.29l.16,0c.25.24.17.27.19.42-.22-.16-.09-.19-.21-.24.42.48-.66-.2-.44.19-.23-.09-.52-.41-.69-.46.24.43-.5-.15-.33.24.41.25.32.17.6.57l-.06-.46.41.6c.07-.07-.11-.35,0-.34a1.15,1.15,0,0,0,.5.45c-.64-.35.16.46-.31.27l-.92-.74c-.55-.15.22.69-.19.73l.22.06c.34.33-.07.18,0,.38a2.7,2.7,0,0,0-.67-.42c.23.18-.15.15.45.66l-.49-.22c-.32,0,.71.91.46,1-.29-.33-.58-.42-.72-.73-.05.05-.15.06.06.24-.22-.13.28.49,0,.31.11.14.43.4.35.45a.89.89,0,0,1-.15-.12c.15.12.12.27.51.48-1.11-.59-.34.57-1.29.07a1.63,1.63,0,0,1-.1.58c-.09-.08-.16-.13-.11-.12-.41-.07.81.81.34.74-.57-.31-.19-.32-.43-.41-1-.79,0,.31-.8.07l0-.09c-.47-.09.07.59-.12.77l0,0a1.24,1.24,0,0,0-.17-.1A1.66,1.66,0,0,1,5,17.79c-.39-.19-.18-.16-.63-.27,0,.11.72.22.73.41a6.39,6.39,0,0,1-1-.06l0-.18c-.62-.06-.08.24-.22.3l-.24-.07c0,.29.56.38.36.57h.18c.43.16-.37.06-.08.19H3.61a2,2,0,0,1,.2.21.14.14,0,0,1,0,.09.55.55,0,0,1-.23-.09,1.92,1.92,0,0,0-.21-.16.17.17,0,0,0,0,.15s0,.06.11.07-.1,0,0-.06.21.06.24.1,0,0,0,0-.07,0,0,.07c-.35,0-.35.08-.32.19s.08.23-.29.33c.47.18-.09.75,0,1.2,1.12-.51,0,.13,1.25-.28.11.08.1.12,0,.16L4,21a2,2,0,0,0-.24.33c-.28.23-.39,0-.67.16.19.27-.42.33-.53.65.4-.24.72-.22.74,0a3.76,3.76,0,0,1,.3-.47c1,0-.59.81.34.79l-.45.12c.38,0,.71.67,1.6.16-.08.12-.28.39-.42.38.14.36,1.25-.19,1,.41l-.24.18c.1,0,.49-.29.31,0-.1.08-.25.18-.24.21s.5-.22.41-.05l-.3.16c-.11.48.93-.16,1.26-.07-.69.54-.77.91-.81,1.09l-.1.07c.12.34.94.05,1.43.12-.66.73.08.82-.17,1.41a1.61,1.61,0,0,1,.68-.38c-.11.17.63-.15,0,.29v0c-.63.49-.36.51-.31.63l.9-.56c-1.11,1.12,1,.46-.11,1.35.27-.06.32,0,.59,0l-.48.29c0,.27,0,.4.26.58l-.38.16c.05.16,1.5-.67,1.61-.56l-.7.48c.16.23-.33.86.47.71-.1.06-.32.18-.37.16s-.23.74.75.1c-.65.39.09.3.45.26l-.49.26c.68-.25.85-.34,1.11-.29,0,.08-.36.26-.27.14-.18.28.51-.17.35.13l-.34.13c0,.15.2,0,.6-.1.24,0,0,.32-.4.6.28-.15.67-.29.59-.14a.91.91,0,0,1-.33.16c-.2.41.76,0,.38.41a1.49,1.49,0,0,0-.27.2c-.1-.18-.16-.33-.12-.34-.44.27-.42.45-1.1.71.4-.09,1.24-.34,1.12-.08l-.14.11-.06,0c0,.06,0,.06.13,0s-.08.15-.06.19c-.35.24-.09.28-.07.36.48-.3.46-.17.8-.49,0,0-.07,0-.11,0h-.07l0,0-.14-.15c.28-.1.52-.17.3.07l.84-.38c-.61.5-.86.9-1.25,1.18.4,0,.5.39,1.48,0,.15,0-.22.22-.34.33s-.13,0-.27,0c.31,0,.32.29,1-.07-.19.32-.63.28-.39.42l-.21.09c-.73,1,2-.36,1,.9a.81.81,0,0,1,.18-.2c-.22.88,1.2.7.65,1.79-.09.26.31,0,.67-.1l-.49.37.68-.25c.56-.07-1,1.2,0,.92l.31-.26c0,.14.4.17,0,.41.07,0,.37-.2.22-.05l-.26.19.6-.08c-.07.31-1,.69-.93,1a2.46,2.46,0,0,0,1.09-.4c0-.05.09-.22.35-.4H17a7.37,7.37,0,0,0,2-1.58l-.57.18.34-.31.11.11c.3-.31,0-.15-.28-.05A1.82,1.82,0,0,0,19,35.3l-.83.36c.29-.22.64-.34.74-.55-.39.16-.63.53-.93.56.3-.31.6-.48.25-.36a1.06,1.06,0,0,1,.43-.24c-.28.08-.23-.13-.66.11.38-.37-.28-.18.46-.67a1.71,1.71,0,0,1-.74.21c1-.47-.11-.3.85-.89-.85.43-.57-.1-1.12,0,.07,0,.21-.1.18-.05,0-.14.23-.33.34-.49a5.09,5.09,0,0,1-1.36.57c.56-.53.81-.44,1.39-.88-.52.36-.65.16-1.07.49a3.39,3.39,0,0,1,.66-.61c-.83.53-.2,0-.75.27.33-.39.75-.53.41-.51A1.2,1.2,0,0,1,17.81,32.34ZM14.24,30h0l.07.05Zm-.19-.28a.42.42,0,0,0,.06.14c-.16.11-.33.2-.34.17S13.94,29.81,14.05,29.68Zm-2.94,2.63c-.09,0,0-.08.09-.14a.34.34,0,0,0,.1,0l.07,0Z" transform="translate(-2.54 -2.91)" fill="#202020"/><path d="M11.8,32h0l.09-.09-.16.08Z" transform="translate(-2.54 -2.91)" fill="#202020"/><path d="M13.09,7.23h0l.07,0Z" transform="translate(-2.54 -2.91)" fill="#202020"/><polygon points="10.01 22.22 9.89 22.29 10.01 22.25 10.01 22.22" fill="#202020"/><path d="M15.76,7l.12.07Z" transform="translate(-2.54 -2.91)" fill="#202020"/><path d="M16.36,6.45l.22,0Z" transform="translate(-2.54 -2.91)" fill="#202020"/><path d="M17,6.15,16.78,6h0Z" transform="translate(-2.54 -2.91)" fill="#202020"/><path d="M11.35,14.18a0,0,0,0,0,0,0C11.4,14.33,11.39,14.27,11.35,14.18Z" transform="translate(-2.54 -2.91)" fill="#202020"/><path d="M12.15,11.09a1,1,0,0,1,.14.24C12.36,11.32,12.39,11.29,12.15,11.09Z" transform="translate(-2.54 -2.91)" fill="#202020"/><polygon points="7.29 14.22 7.29 14.22 7.27 14.23 7.29 14.22" fill="#202020"/><path d="M12.2,11.43c.12,0,.13,0,.09-.1S12.16,11.34,12.2,11.43Z" transform="translate(-2.54 -2.91)" fill="#202020"/><path d="M18.83,4.23h0l-.06-.06Z" transform="translate(-2.54 -2.91)" fill="#202020"/><path d="M18.8,4.17l0-.07S18.75,4.12,18.8,4.17Z" transform="translate(-2.54 -2.91)" fill="#202020"/><path d="M18.7,4l.07.14S18.81,4.07,18.7,4Z" transform="translate(-2.54 -2.91)" fill="#202020"/><path d="M18.12,4.7l.15.14Z" transform="translate(-2.54 -2.91)" fill="#202020"/><path d="M18,4.93c.07,0,.43.16.38,0l-.12-.11C18.48,5.06,17.77,4.68,18,4.93Z" transform="translate(-2.54 -2.91)" fill="#202020"/><path d="M15.4,4.16l.25-.06c-.19-.11-.45-.25-.43-.36C14.55,3.54,15.63,4,15.4,4.16Z" transform="translate(-2.54 -2.91)" fill="#202020"/><path d="M14.75,4.46c0-.15-.25-.19-.34-.28C14.52,4.36,14.55,4.41,14.75,4.46Z" transform="translate(-2.54 -2.91)" fill="#202020"/><path d="M11.83,8.08l-.39-.33C11.45,7.86,11.6,7.87,11.83,8.08Z" transform="translate(-2.54 -2.91)" fill="#202020"/><polygon points="10.79 7.52 11.09 7.65 10.75 7.33 10.79 7.52" fill="#202020"/><polygon points="7.63 5.64 7.59 5.57 7.65 5.79 7.63 5.64" fill="#202020"/><path d="M5.42,14.74l.51.38C5.88,15,5.33,14.55,5.42,14.74Z" transform="translate(-2.54 -2.91)" fill="#202020"/><path d="M3.81,18.44c-.24,0-.41.08-.24.14S3.84,18.48,3.81,18.44Z" transform="translate(-2.54 -2.91)" fill="#202020"/><polygon points="5.26 24.17 5.05 24.23 5.26 24.24 5.26 24.17" fill="#202020"/></svg>