<svg xmlns="http://www.w3.org/2000/svg" width="18.33" height="18.32" viewBox="0 0 18.33 18.32"><title>icon-close</title><path d="M.9,17.62c0,.07.19.21.19.16l-.21-.26Z" transform="translate(-0.88 -0.24)" fill="#202020"/><path d="M1.49,17.91A2.32,2.32,0,0,0,1,17.32c.19.26.09.17.31.48,0,.05-.11,0-.19-.13.05.07-.09,0,0,.15s.25.12.15-.08A1.14,1.14,0,0,1,1.49,17.91Z" transform="translate(-0.88 -0.24)" fill="#202020"/><path d="M4.36,15.92h0Z" transform="translate(-0.88 -0.24)" fill="#202020"/><path d="M6,14.58a.13.13,0,0,0,0,.07A.09.09,0,0,0,6,14.58Z" transform="translate(-0.88 -0.24)" fill="#202020"/><path d="M6.56,14.59h0S6.57,14.61,6.56,14.59Z" transform="translate(-0.88 -0.24)" fill="#202020"/><path d="M4.36,15.92l.12,0C4.41,15.88,4.4,15.92,4.36,15.92Z" transform="translate(-0.88 -0.24)" fill="#202020"/><path d="M1.29,17a.59.59,0,0,0,0,.08v0Z" transform="translate(-0.88 -0.24)" fill="#202020"/><path d="M3.86,16.76v0l.08.1Z" transform="translate(-0.88 -0.24)" fill="#202020"/><path d="M3.37,17.3A2.33,2.33,0,0,0,3.12,17a.7.7,0,0,1,.11.17Z" transform="translate(-0.88 -0.24)" fill="#202020"/><path d="M2.19,17.72v0Z" transform="translate(-0.88 -0.24)" fill="#202020"/><path d="M4.28,16.45l.07.07Z" transform="translate(-0.88 -0.24)" fill="#202020"/><path d="M17.32.58l0,0S17.33.58,17.32.58Z" transform="translate(-0.88 -0.24)" fill="#202020"/><polygon points="17.95 0.99 17.95 1 18.03 1.14 17.95 0.99" fill="#202020"/><path d="M7.29,14.38h0S7.3,14.4,7.29,14.38Z" transform="translate(-0.88 -0.24)" fill="#202020"/><path d="M11.51,9.85c-.23-.12-.15-.3-.43-.42C11.17,9.5,11.34,9.8,11.51,9.85Z" transform="translate(-0.88 -0.24)" fill="#202020"/><path d="M1.33,17l0,0A0,0,0,0,0,1.33,17Z" transform="translate(-0.88 -0.24)" fill="#202020"/><path d="M11.08,9.43Z" transform="translate(-0.88 -0.24)" fill="#202020"/><path d="M8.29,13.18l-.1-.08Z" transform="translate(-0.88 -0.24)" fill="#202020"/><path d="M7.18,13.7h0Z" transform="translate(-0.88 -0.24)" fill="#202020"/><path d="M8.43,12.48s.06,0,.05,0l0,0S8.48,12.5,8.43,12.48Z" transform="translate(-0.88 -0.24)" fill="#202020"/><path d="M8.88,12l-.05,0v0Z" transform="translate(-0.88 -0.24)" fill="#202020"/><path d="M15.85,1.94l.19.17C15.9,2,15.92,1.85,15.85,1.94Z" transform="translate(-0.88 -0.24)" fill="#202020"/><path d="M1.4,17.11,1.33,17v0A.45.45,0,0,0,1.4,17.11Z" transform="translate(-0.88 -0.24)" fill="#202020"/><path d="M6.89,10.88l.1,0A.18.18,0,0,0,6.89,10.88Z" transform="translate(-0.88 -0.24)" fill="#202020"/><path d="M12.65,5.21v0S12.63,5.18,12.65,5.21Z" transform="translate(-0.88 -0.24)" fill="#202020"/><path d="M7.17,10.61a.54.54,0,0,0,.17.1l0-.06Z" transform="translate(-0.88 -0.24)" fill="#202020"/><path d="M16,2.11Z" transform="translate(-0.88 -0.24)" fill="#202020"/><path d="M16.13,1.16c-.08.06.19.31.31.48s-.21-.17-.37-.29c0,.12.18.42.13.44a.42.42,0,0,1-.1-.12c.13.28-.17.17,0,.5L16,2.11l.35.37s.09.23-.08.06c0,0,0-.09-.08-.15l0,.11c-.26-.24,0-.13-.2-.33,0,.15.12.43,0,.4-.24-.24,0-.19-.23-.35l.17,0c-.42-.34.07,0-.37-.39-.17,0,0,.23-.17.25.1.16.2.2.3.36.09.39-.69-.52-.49-.09.12.19.41.52.17.42l-.23-.3c-.13.06.32.45,0,.36-.08-.13,0-.16-.06-.18-.27-.16.11.2.06.25L15,2.68c-.06.14,0,.42-.08.58A.66.66,0,0,0,14.71,3c0,.26-.33.27-.61.26l.16.26s-.11-.07-.14-.12.13.13.19.24-.16-.08-.21-.16c.09.27.13.64-.2.52l0-.08c-.16,0,.35.5.09.39l0,0c-.25.08-.23.45-.67.27.28.32-.3,0,.12.46-.3-.11-.35-.21-.62-.2-.06,0,.22.3.22.39L12.75,5l.18.28-.3-.22,0,.1a.55.55,0,0,1,.19.12c.05.16-.3,0-.42-.09l.05.33a.59.59,0,0,1-.14-.21c.16.29-.25-.21-.11.06a1,1,0,0,1,.18.18c-.17-.09-.25,0-.25.11L12,5.52c-.14.08-.14.31-.27.44a.76.76,0,0,1,.38.34l-.26-.21c.13.16.13,0,.26.26-.07,0-.3-.21-.35-.31l0,.13A1.88,1.88,0,0,1,11.6,6c.13.16-.34-.12-.11.16l-.07-.07c-.12.13-.09.27-.17.38.2.19.12.19.26.37-.14,0-.38,0-.45.06s.16.18.26.33C11.13,7,11.06,7.14,11,7a.65.65,0,0,0-.07.46.6.6,0,0,1,.2.14c0,.05-.14,0-.22-.11l0,0c.14.42-.88-.15-.6.34v0l.08.32c-.09,0-.11-.17-.27-.23.19.43-.25.17-.15.48-.63-.43-.25.35-.71.13l.13.12c.1.15-.11,0-.16,0,.1.09.15.08.2.16-.09.41-.7.35-1.07.5-.13.06.61.7.18.52l-.2-.27c.09.47-.4.39-.34.81-.05-.06-.12-.13-.1-.15-.21-.13-.15.14,0,.28,0,0-.13-.12-.22-.18s.11.32-.08.17a.18.18,0,0,1,0-.08c.06.1-.14.1.08.27-.16,0,0,.22-.22.16.19.25-.22,0,.08.33-.32-.32-.39-.13-.28.06C7.06,11,7,11,6.89,10.89c0,0,0,.16.13.32-.47-.3.12.49-.42,0a2.34,2.34,0,0,1-.07.79c-.31-.33.12-.18-.22-.51,0,.26.2.61,0,.66S6.18,12,6.14,12c0,.26-.28.22-.22.51a.27.27,0,0,1-.06-.12s-.1,0,0,.15l0-.06c.25.18.35.54.45.65-.37-.46-.22,0-.67-.59a.5.5,0,0,0,.16.23c-.05,0-.11-.06-.2-.19,0,.16.18.29.1.36-.07-.08-.08-.12-.16-.21.1.18.2.35.08.35s-.1-.09-.08-.11c-.09.13.17.55-.08.53-.26-.35-.14-.06-.4-.33v.14l.15.11c-.06,0,.08.29-.06.25l-.06-.15-.06.15.16,0c.08.19.33.33.19.33s-.06.05-.24-.08h0c0,.11.11.23,0,.2s-.27-.3-.34-.36c.19.26-.07.19.13.47A3,3,0,0,0,4.75,14l.15.21A.61.61,0,0,1,4.68,14c-.11,0,.35.32.12.26a.24.24,0,0,1,0-.09c-.16,0-.07.29-.24.28-.28-.24,0-.13-.24-.34-.07.17.06.57-.12.62h0c.34.4-.27-.1-.16.14,0-.05-.19-.23-.15-.19-.14,0-.08.26-.09.5l-.08-.12c-.13,0-.17.07-.27.08.08.11,0,.12.19.25-.7-.41,0,.6-.61.26,0,0,0-.13-.06-.11l0,.2a1.66,1.66,0,0,0,.26.2c.08.11.12.22.09.25,0-.16-.25-.27-.37-.34.06,0,.1.11.15.16-.34-.24.31.35,0,.23L3,16.2c0,.08.09.22,0,.23-.19-.18,0-.13-.19-.29,0,.06.24.46,0,.31,0-.07,0-.1,0-.18-.27-.18-.22-.11-.29-.12h0l-.18,0,.08,0c.41.57,0,.21.19.63-.22-.4-.16-.2-.36-.43a.61.61,0,0,1-.23-.15c.13.22-.2-.07,0,.24-.07-.07,0,0-.2-.16,0,.11.12.12.2.21.15.32-.46-.12-.26.32,0,.23.23.49.25.69a.67.67,0,0,1-.21-.28c-.15-.06-.17,0-.14.12a.9.9,0,0,0-.2-.18c0,.05.22.28.07.23s-.17-.23-.23-.33c0,.11.1.29.11.39a.89.89,0,0,1-.21-.31.6.6,0,0,0,.14.45l.1,0s-.17-.16-.19-.21.13,0,.2.08v.08c.43.38.07-.19.16-.23l.26.33-.17-.32c.09.07.26.23.26.3.19.11-.05-.14.14,0a.12.12,0,0,1,0,0l0-.13c.05.07.21.2.14.19.25.09-.08-.36.17-.16v0c0-.21-.2-.23-.36-.58l.58.5-.2-.23s.06,0,.14.08c-.1-.19-.1-.09-.21-.26.25.15.07-.24.41.1-.13-.19-.17-.08-.22-.25.37.36,0-.13.22,0s0,.16.24.28c-.28-.36.17,0,.16-.12-.25-.27,0-.2,0-.36.08.09.27,0,.43.05l0,0c-.24-.28-.12-.29-.12-.4a1.11,1.11,0,0,1,.24.33l.05,0a.41.41,0,0,1-.1-.22l.18.21c0-.07-.09-.36.12-.3-.17-.19-.56-.46-.59-.66.1.09.27.26.28.33s-.05-.11,0-.08l.12.2c.11,0-.11-.16-.07-.18.14.15.12.09.22.2s-.08,0,0,0a.51.51,0,0,1,.3.13c-.08-.08-.18-.19-.18-.23s.19.15.3.19c-.08-.12.06-.05-.14-.27,0,0,.11.08.18.13-.06-.12.13-.17-.13-.36h0c-.09-.32.34-.1.36-.29l.07.07c0-.14.1-.18,0-.38,0,0,.17.09.24.18,0-.1-.07-.19.11-.14s.12.1,0,.14c.12,0,.24.1.13-.16.15.21.26.19.24.1l-.17-.08a.12.12,0,0,1,.1-.09l.21.26c.41.17-.23-.73.33-.33-.12-.2-.18-.05-.34-.28.09,0,.49.26.51.24.21.06-.26-.42-.09-.41-.09-.08-.32-.3-.33-.44s.41.29.44.4,0,0-.07,0a.23.23,0,0,0,.14.18l-.08-.1c.12.06.19,0,.31.13a.23.23,0,0,0-.2-.17c.2.05.13-.11.29-.1-.06,0-.17-.13-.15-.14.21,0-.11-.21-.07-.32.17.08.29.32.26.14.14,0,.23.21.28.3-.09-.23.24,0,.31,0l0,.11c0-.07,0-.08,0-.1L7,14.4c.05,0,.07,0,.14.06-.08-.13-.29-.27-.39-.46.11.05,0-.18.23,0-.17,0,.23.22.18.33s0-.06.06,0a.1.1,0,0,1,0,.07c.29.12-.2-.29-.11-.38.12.14.26.22.25.18s-.22-.2-.28-.33c.15.05,0-.13,0-.15H7.1C7,13.55,7,13.54,7,13.45c.1.1,0,.11.08.14-.17-.27.33.13.25-.08.11.05.24.23.32.27-.09-.24.25.09.19-.12s-.15-.1-.26-.32v.24l-.16-.32s0,.18,0,.17a.47.47,0,0,0-.21-.25c.3.21,0-.25.18-.13l.41.42c.28.1,0-.37.17-.38l-.11,0c-.15-.19,0-.1,0-.2a1.37,1.37,0,0,0,.31.24c-.11-.1.09-.07-.17-.36l.23.13c.17,0-.29-.5-.15-.54.12.18.26.24.31.4,0,0,.08,0,0-.12.1.07-.11-.27,0-.17,0-.07-.19-.22-.14-.24l.07.07c-.07-.07-.05-.15-.23-.28.53.35.22-.28.68,0a.81.81,0,0,1,.1-.3c0,.05.07.07,0,.07.21.05-.35-.45-.11-.4s.07.17.18.23c.48.44.05-.18.38,0l0,0c.2.11-.06-.29.05-.33a.23.23,0,0,0,.07.06.81.81,0,0,1-.16-.6c.16.2.06.13.26.3,0-.06-.3-.28-.29-.4a1.72,1.72,0,0,1,.46.3l-.05.07c.28.22.07-.09.15-.08l.1.11c.06-.13-.22-.4-.09-.49l-.1-.07c-.22-.33.21.1.05-.16l.3.26a2.2,2.2,0,0,1-.13-.52,3,3,0,0,1,.28.6s.1-.15,0-.3c0,0,.07.13,0,.1-.18-.26-.23-.43-.15-.5.54.55.33-.06.81.3-.08-.33.34-.19.45-.37-.48-.36,0-.06-.42-.47,0-.07,0-.07.06-.05l.37.14c.16.1.07.13.17.22s.22.15.39.2c-.17-.14-.2-.24-.1-.23l-.27-.13c-.13-.33.47.26.34-.08l.11.17c0-.13.2-.21-.1-.6.06,0,.19.14.2.19.19-.09-.09-.67.23-.57l.1.11s-.16-.23,0-.16.1.11.11.1-.12-.24,0-.22l.1.14c.27,0-.11-.48-.08-.67a.76.76,0,0,0,.63.28l0,0c.19-.13,0-.52,0-.78.43.23.43-.18.76-.14a.78.78,0,0,1-.26-.29c.09,0-.14-.3.15,0h0c.32.24.31.1.36.05l-.38-.36c.7.37.14-.57.71-.18-.06-.12,0-.16-.09-.29l.21.2c.14,0,.21-.07.27-.23l.12.16c.08,0-.52-.64-.47-.71l.32.27c.1-.12.48,0,.31-.36,0,0,.13.14.12.17s.4,0,0-.39c.27.26.13-.09.07-.27l.19.2c-.2-.29-.27-.36-.27-.5s.17.14.1.11c.16,0-.15-.23,0-.19l.11.15c.07,0,0-.11-.12-.28s.16-.06.34.11c-.1-.12-.21-.3-.13-.28a.89.89,0,0,1,.12.14c.23,0-.09-.37.17-.24.07.07.1.1.13.11s-.15.12-.16.1c.18.18.27.15.47.45-.09-.18-.3-.56-.15-.54l.07.06v0s0,0,0-.07.08,0,.1,0,.15,0,.19,0c-.2-.2-.13-.21-.33-.34,0,0,0,0,0,.06a0,0,0,0,0,0,0h0l-.06.08c-.08-.12-.14-.23,0-.16L16,3.86c.31.24.54.31.72.48,0-.21.14-.28-.15-.73,0-.07.13.08.2.14s0,.06,0,.12c0-.15.12-.18-.11-.47.18.06.19.29.24.16l.06.09c.58.28-.31-1,.4-.59A.21.21,0,0,1,17.25,3c.45.06.31-.66.89-.44.13,0,0-.16-.07-.34l.2.23-.14-.33c0-.29.62.46.47,0l-.13-.15c.07,0,.08-.21.21,0,0,0-.1-.19,0-.11l.09.13,0-.31c.15,0,.34.53.49.46A1.55,1.55,0,0,0,19,1.52s-.11,0-.2-.17v-.1a2.86,2.86,0,0,0-.77-1l.07.3L18,.37,18,.31c-.16-.15-.08,0,0,.15a.6.6,0,0,0-.18-.18L18,.71c-.11-.15-.17-.33-.28-.37.08.2.27.31.28.46-.16-.14-.25-.29-.19-.11a.44.44,0,0,1-.12-.22c0,.15-.08.13,0,.35-.2-.18-.11.16-.36-.2,0,.1.13.34.1.38-.24-.48-.16.08-.49-.38.24.41-.06.31,0,.59,0,0,0-.1,0-.09S16.76,1,16.67,1a2.44,2.44,0,0,1,.32.67c-.3-.24-.25-.39-.49-.66.2.25.09.34.27.53a1.88,1.88,0,0,1-.34-.29c.3.39,0,.1.16.37-.22-.13-.31-.34-.29-.17A.47.47,0,0,1,16.13,1.16ZM15,3.33h0l0,0Zm-.13.13.06,0c.08.07.14.14.13.15S15,3.5,14.87,3.46Zm1.64,1.12s0,0-.08,0,0,0,0-.06l0,0Z" transform="translate(-0.88 -0.24)" fill="#202020"/><path d="M16.29,4.28a0,0,0,0,0,0,0l-.05,0,.05.08Z" transform="translate(-0.88 -0.24)" fill="#202020"/><path d="M4.31,15.91h0l0,0Z" transform="translate(-0.88 -0.24)" fill="#202020"/><polygon points="11.81 4.72 11.87 4.77 11.83 4.72 11.81 4.72" fill="#202020"/><path d="M2.91,15.9s0,0-.06,0Z" transform="translate(-0.88 -0.24)" fill="#202020"/><path d="M2.55,16.15l-.11,0A.22.22,0,0,0,2.55,16.15Z" transform="translate(-0.88 -0.24)" fill="#202020"/><path d="M2.21,16.28l.08.09h0Z" transform="translate(-0.88 -0.24)" fill="#202020"/><path d="M5.86,12.36h0C5.84,12.29,5.84,12.32,5.86,12.36Z" transform="translate(-0.88 -0.24)" fill="#202020"/><path d="M5.17,13.94a.69.69,0,0,1-.06-.13S5.06,13.82,5.17,13.94Z" transform="translate(-0.88 -0.24)" fill="#202020"/><polygon points="6 10.64 6.01 10.65 6.01 10.64 6 10.64" fill="#202020"/><path d="M5.17,13.76c-.06,0-.07,0-.06.05S5.18,13.81,5.17,13.76Z" transform="translate(-0.88 -0.24)" fill="#202020"/><path d="M1.06,17.19H1l0,0Z" transform="translate(-0.88 -0.24)" fill="#202020"/><path d="M1.07,17.22v0S1.09,17.25,1.07,17.22Z" transform="translate(-0.88 -0.24)" fill="#202020"/><path d="M1.1,17.34l0-.08S1.05,17.27,1.1,17.34Z" transform="translate(-0.88 -0.24)" fill="#202020"/><path d="M1.47,17l-.06-.08Z" transform="translate(-0.88 -0.24)" fill="#202020"/><path d="M1.55,16.86s-.21-.1-.2,0l.06.06C1.32,16.77,1.65,17,1.55,16.86Z" transform="translate(-0.88 -0.24)" fill="#202020"/><path d="M2.82,17.4H2.69c.08.07.2.16.18.21C3.2,17.76,2.69,17.47,2.82,17.4Z" transform="translate(-0.88 -0.24)" fill="#202020"/><path d="M3.19,17.27c0,.08.11.11.15.16C3.3,17.33,3.29,17.31,3.19,17.27Z" transform="translate(-0.88 -0.24)" fill="#202020"/><path d="M5.05,15.52l.17.19C5.23,15.65,5.15,15.64,5.05,15.52Z" transform="translate(-0.88 -0.24)" fill="#202020"/><polygon points="3.61 13.99 3.47 13.9 3.61 14.09 3.61 13.99" fill="#202020"/><polygon points="5.07 15.11 5.08 15.15 5.08 15.03 5.07 15.11" fill="#202020"/><path d="M9,12.29l-.23-.21C8.76,12.14,9,12.4,9,12.29Z" transform="translate(-0.88 -0.24)" fill="#202020"/><path d="M10.05,10.75c.13.09.24.12.15,0S10,10.7,10.05,10.75Z" transform="translate(-0.88 -0.24)" fill="#202020"/><polygon points="13.35 6.79 13.4 6.89 13.38 6.78 13.35 6.79" fill="#202020"/><path d="M17.8,18.54c.08,0,.23-.16.18-.17l-.28.19Z" transform="translate(-0.88 -0.24)" fill="#202020"/><path d="M18.14,18a2.47,2.47,0,0,0-.61.43c.27-.17.17-.08.49-.29.05,0-.05.11-.14.18.07,0,0,.09.14,0s.15-.24-.05-.15A1,1,0,0,1,18.14,18Z" transform="translate(-0.88 -0.24)" fill="#202020"/><path d="M16.23,15.25v.05S16.24,15.26,16.23,15.25Z" transform="translate(-0.88 -0.24)" fill="#202020"/><path d="M14.78,13.78a.08.08,0,0,0,.06,0S14.8,13.75,14.78,13.78Z" transform="translate(-0.88 -0.24)" fill="#202020"/><path d="M14.74,13.27v0S14.76,13.26,14.74,13.27Z" transform="translate(-0.88 -0.24)" fill="#202020"/><path d="M16.23,15.25l0-.11C16.19,15.22,16.23,15.22,16.23,15.25Z" transform="translate(-0.88 -0.24)" fill="#202020"/><path d="M17.25,18.16l.08,0h0Z" transform="translate(-0.88 -0.24)" fill="#202020"/><path d="M17.08,15.68h0l.1-.08Z" transform="translate(-0.88 -0.24)" fill="#202020"/><path d="M17.62,16.15a3.68,3.68,0,0,0-.3.25.7.7,0,0,1,.17-.11Z" transform="translate(-0.88 -0.24)" fill="#202020"/><path d="M18,17.31l0,0Z" transform="translate(-0.88 -0.24)" fill="#202020"/><path d="M16.76,15.29l.06-.08Z" transform="translate(-0.88 -0.24)" fill="#202020"/><path d="M2.28,2.22h0Z" transform="translate(-0.88 -0.24)" fill="#202020"/><polygon points="2.64 0.93 2.66 0.94 2.81 0.92 2.64 0.93" fill="#202020"/><path d="M14.45,12.59h0S14.47,12.58,14.45,12.59Z" transform="translate(-0.88 -0.24)" fill="#202020"/><path d="M9.79,9.2c-.12.23-.29.18-.4.45C9.46,9.56,9.74,9.37,9.79,9.2Z" transform="translate(-0.88 -0.24)" fill="#202020"/><path d="M17.27,18.13s0,0,0,0S17.25,18.13,17.27,18.13Z" transform="translate(-0.88 -0.24)" fill="#202020"/><path d="M9.39,9.65h0v0Z" transform="translate(-0.88 -0.24)" fill="#202020"/><path d="M13.18,11.83a.37.37,0,0,0-.06.1Z" transform="translate(-0.88 -0.24)" fill="#202020"/><path d="M13.8,12.81v-.05A.13.13,0,0,0,13.8,12.81Z" transform="translate(-0.88 -0.24)" fill="#202020"/><path d="M12.49,11.8s0-.06,0,0l0,0S12.5,11.75,12.49,11.8Z" transform="translate(-0.88 -0.24)" fill="#202020"/><path d="M12,11.45l0,.05h0Z" transform="translate(-0.88 -0.24)" fill="#202020"/><path d="M3,4.1,3.21,4C3,4.07,2.92,4,3,4.1Z" transform="translate(-0.88 -0.24)" fill="#202020"/><path d="M17.37,18.06l-.1.07h0Z" transform="translate(-0.88 -0.24)" fill="#202020"/><path d="M11.13,13.55l-.05-.09A.11.11,0,0,0,11.13,13.55Z" transform="translate(-0.88 -0.24)" fill="#202020"/><path d="M5.35,8h0S5.33,8,5.35,8Z" transform="translate(-0.88 -0.24)" fill="#202020"/><path d="M10.83,13.32a.62.62,0,0,0,.08-.18l-.06,0Z" transform="translate(-0.88 -0.24)" fill="#202020"/><path d="M3.21,4h0Z" transform="translate(-0.88 -0.24)" fill="#202020"/><path d="M2.35,3.56c0,.1.36-.07.57-.11s-.25.13-.41.23c.12,0,.46,0,.46,0a.52.52,0,0,1-.15.06c.3,0,.09.21.47.16L3.21,4a3.86,3.86,0,0,1,.47-.19s.24,0,0,.09c0,0-.09,0-.17,0h.12c-.31.17-.14,0-.37.09.13,0,.44,0,.37.12-.31.14-.16-.1-.41.09l.08-.14c-.47.27,0-.08-.49.21,0,.17.21.08.18.25.19,0,.25-.12.44-.17.39,0-.72.49-.25.44.23-.06.62-.23.46,0l-.37.13c0,.14.54-.17.36.07-.14,0-.16,0-.19,0-.23.21.23,0,.26,0l-.3.17c.11.1.4.13.53.23a.76.76,0,0,0-.28.15c.25.1.17.39.1.66l.29-.08a.47.47,0,0,1-.16.11c0,.12.16-.1.28-.13s-.11.14-.2.16c.28,0,.65,0,.46.32l-.09,0c0,.16.57-.23.39,0l0,0c0,.26.39.31.13.71.36-.22,0,.3.47,0-.15.29-.26.32-.3.59,0,.05.34-.17.42-.16l-.24.19.3-.14L5.21,8h.1a.44.44,0,0,1,.15-.18c.17,0,0,.3-.15.4h.34a.59.59,0,0,1-.23.11c.31-.12-.24.22,0,.12a2.31,2.31,0,0,1,.19-.16c-.1.16,0,.25.09.27l-.17.13c.07.15.3.18.42.31a.79.79,0,0,1,.37-.34l-.23.24c.17-.11.06-.12.28-.24,0,.07-.24.28-.34.33l.14,0A2.46,2.46,0,0,1,6,9.15c.17-.11-.14.33.15.12l-.07.07c.12.13.26.11.37.2.2-.19.2-.11.39-.24,0,.13-.06.37,0,.44s.19-.15.33-.24c-.17.19-.07.26-.24.34a.57.57,0,0,0,.45.08,1.15,1.15,0,0,1,.14-.2c.06,0,0,.14-.1.22l0,0c.42-.14-.14.88.35.6h0l.32-.09c0,.08-.17.11-.23.27.43-.2.19.24.49.13-.4.65.36.23.17.7l.11-.14c.14-.11,0,.11,0,.16.08-.11.07-.15.15-.21.4.06.39.66.58,1,.07.12.63-.67.49-.24l-.24.23c.45-.15.42.35.83.24-.06,0-.12.13-.14.11-.11.22.15.13.27,0,0,0-.1.14-.14.24s.29-.16.17,0a.17.17,0,0,1-.08.07c.1-.08.11.12.25-.12,0,.16.23,0,.19.19.22-.22,0,.22.31-.12-.28.35-.08.39.09.26-.1.09,0,.14-.18.28.06,0,.16,0,.3-.19-.23.51.46-.19.1.4a2.42,2.42,0,0,1,.77-.06c-.28.36-.19-.08-.47.3.25,0,.56-.29.63-.1s-.14.14-.2.19c.25,0,.24.24.51.13a.2.2,0,0,1-.1.08s0,.1.14-.07l-.06,0c.15-.27.48-.42.58-.54-.4.43,0,.21-.49.75a.59.59,0,0,0,.2-.2c0,.05,0,.12-.17.23.16,0,.26-.22.34-.16l-.18.19c.15-.13.31-.25.33-.13s-.09.11-.1.09.5-.25.51,0c-.3.31,0,.15-.27.44l.13,0,.09-.16s.27-.12.24,0l-.13.09.15,0,0-.16c.17-.1.29-.37.3-.23s0,0-.06.24h0c.11-.07.21-.14.2,0s-.27.31-.32.38c.23-.22.19,0,.44-.19a1.44,1.44,0,0,0-.21.24l.18-.18a.42.42,0,0,1-.15.23c0,.1.28-.38.24-.15l-.08.06c0,.16.28,0,.29.2-.22.31-.13,0-.31.27.17,0,.55-.13.6,0v-.05c.36-.38-.09.28.14.14,0,0-.22.2-.17.16,0,.13.25.05.48,0l-.11.09c0,.13.08.16.08.25.11-.09.12,0,.24-.2-.38.71.58,0,.27.56,0,0-.12.05-.11.06l.2,0c.15-.17.08-.11.18-.27s.22-.12.25-.1c-.16.06-.26.27-.33.38l.16-.15c-.23.35.33-.33.22-.05l-.09.08c.07,0,.21-.1.22,0-.17.2-.12.06-.28.21.06,0,.45-.27.3,0-.07,0-.1,0-.17,0-.18.27-.12.22-.12.28h0l0,.17,0-.08c.55-.43.2,0,.61-.21-.39.22-.2.16-.42.36a.61.61,0,0,1-.15.23c.21-.14-.09.19.22,0-.07.07,0,.05-.16.21.1,0,.12-.13.21-.21.32-.15-.14.45.29.25.23,0,.49-.24.69-.25a.68.68,0,0,1-.29.2c-.06.15,0,.16.11.14a.68.68,0,0,0-.19.19s.29-.21.22-.07l-.33.22c.11,0,.28-.09.39-.11a1.18,1.18,0,0,1-.32.2.6.6,0,0,0,.44-.12l.05-.1s-.17.16-.22.17c-.2.1,0-.12.1-.18h.07c.42-.4-.18-.07-.21-.15l.34-.25-.32.16c.07-.08.24-.25.32-.25.11-.18-.15.05,0-.14,0,0,0,0,.05,0l-.13,0c.07-.05.22-.2.19-.13.11-.25-.35.07-.14-.17h0c-.21,0-.24.19-.58.35l.51-.56-.24.19s0-.06.09-.13c-.2.09-.09.09-.26.2.15-.24-.24-.06.11-.41-.19.14-.08.18-.26.23.37-.37-.13,0,0-.22s.15,0,.28-.24c-.36.29,0-.17-.12-.15-.27.25-.2,0-.36,0,.09-.08,0-.27,0-.43l0,0c-.27.25-.29.13-.39.14a1,1,0,0,1,.32-.25l0-.05c-.1.08-.15.11-.21.11l.2-.19c-.07,0-.35.11-.3-.09-.18.18-.43.57-.63.62a1.67,1.67,0,0,1,.31-.3s-.1.06-.08,0l.2-.14c0-.1-.16.13-.17.09s.07-.13.19-.24,0,.09,0,0a.48.48,0,0,1,.12-.3c-.07.08-.18.19-.22.19s.14-.19.17-.3c-.11.08-.05-.06-.25.16,0,0,.07-.13.11-.19-.12.06-.17-.11-.35.15v0h0c-.3.12-.11-.33-.3-.33l.06-.07c-.13,0-.18-.07-.37.05,0,0,.07-.18.16-.26-.1,0-.18.09-.14-.09s.08-.14.13-.06c0-.12.08-.25-.17-.1.19-.18.16-.29.08-.26l-.07.18c-.06,0-.07,0-.09-.09l.23-.24c.12-.42-.68.33-.35-.28-.19.15,0,.19-.24.37,0-.08.2-.5.19-.52,0-.21-.39.31-.4.14-.06.1-.25.36-.39.39s.24-.45.34-.49,0,0,0,.07a.27.27,0,0,0,.17-.16l-.09.09c.05-.12,0-.18.1-.32a.24.24,0,0,0-.15.22c0-.2-.12-.11-.13-.26,0,.06-.1.18-.12.16,0-.21-.19.14-.3.11.06-.18.28-.32.1-.27,0-.13.19-.25.27-.31-.22.12,0-.23-.07-.3l.1,0a.08.08,0,0,1-.1,0l-.12.2s0-.07,0-.14c-.12.1-.22.32-.4.45,0-.12-.17,0,0-.23,0,.17.18-.25.3-.23,0,0-.06,0-.06,0a.17.17,0,0,1,.06-.06c.08-.29-.26.25-.35.17.12-.13.18-.29.14-.27s-.16.25-.28.33c0-.16-.13,0-.16,0v.08c-.12.13-.14.09-.21.1.08-.11.09-.05.12-.11-.24.21.08-.34-.11-.22,0-.12.2-.27.22-.35-.22.12.07-.26-.13-.17s-.08.16-.28.31l.23,0-.29.21s.17,0,.17,0c-.16.12-.12.08-.22.25.17-.33-.23.08-.15-.16l.36-.46c.07-.28-.35.11-.38-.1l0,.11c-.16.17-.1,0-.19,0a1.63,1.63,0,0,0,.2-.34c-.09.12-.09-.07-.33.23l.1-.25c0-.16-.45.36-.51.24.16-.15.2-.29.36-.37,0,0,0-.07-.12,0,.05-.12-.25.14-.17,0-.06.06-.19.22-.22.18a.37.37,0,0,1,.06-.08c-.06.08-.13.07-.23.26.27-.56-.3-.17-.06-.65a.67.67,0,0,1-.3-.05s.06-.08.05,0c0-.21-.39.41-.37.17s.16-.1.2-.22c.39-.52-.17,0,0-.37l0,0c.08-.21-.27.1-.33,0l.07-.08a.84.84,0,0,1-.57.23c.18-.18.12-.08.26-.29-.05,0-.24.33-.36.34a2.17,2.17,0,0,1,.26-.49l.07,0c.19-.3-.09-.05-.09-.13l.1-.12c-.13,0-.37.27-.46.16l-.07.1c-.3.26.09-.21-.15,0l.23-.32a2.08,2.08,0,0,1-.49.19,2.45,2.45,0,0,1,.56-.34s-.15-.08-.29,0c0,0,.12-.08.1,0-.25.21-.4.28-.48.21.5-.58-.07-.31.26-.81-.32.11-.19-.31-.36-.4-.34.5-.06,0-.45.44-.06,0-.06,0,0,0l.13-.37c.09-.15.12-.07.21-.18s.14-.22.19-.38c-.13.17-.23.21-.21.11l-.13.26c-.32.16.25-.46-.07-.31l.16-.12c-.13,0-.19-.17-.57.14,0-.06.13-.19.19-.2-.08-.17-.64.12-.53-.19l.11-.1s-.23.17-.16,0,.12-.1.11-.12-.24.14-.21,0l.14-.09c0-.26-.46.11-.64.09.31-.32.32-.51.32-.6l.05,0c-.09-.17-.49,0-.74,0,.28-.4-.11-.41,0-.72a.72.72,0,0,1-.31.23c0-.09-.31.12,0-.14h0c.28-.28.15-.27.11-.33L7.11,7c.48-.63-.51-.18,0-.69-.13,0-.16,0-.29.06L7,6.21c0-.14,0-.2-.16-.27L7,5.84c0-.07-.72.4-.77.35l.32-.26c-.09-.11.14-.44-.25-.34a.75.75,0,0,1,.18-.09c0-.06.1-.36-.37,0,.31-.21-.05-.14-.23-.12l.24-.14c-.33.14-.42.19-.55.17s.18-.14.13-.08c.09-.13-.25.1-.17-.06l.17-.06c0-.08-.1,0-.3,0s0-.16.2-.29c-.13.07-.33.13-.29.06a.74.74,0,0,1,.17-.08c.1-.19-.38,0-.18-.2l.14-.1c0,.09.06.17,0,.17a2.59,2.59,0,0,1,.57-.34c-.2,0-.62.16-.55,0l.08,0h0s0,0,0,0,0-.06,0-.09c.19-.1.07-.13.06-.16-.25.13-.23.06-.42.21,0,0,0,0,.06,0h0l.06.07c-.14,0-.27.07-.15,0l-.42.16c.32-.23.47-.42.68-.53-.2,0-.21-.2-.73,0-.07,0,.13-.1.2-.15s.06,0,.13,0c-.15,0-.13-.16-.48,0,.12-.14.34-.09.23-.17l.11,0c.47-.43-1,0-.39-.52a.35.35,0,0,1-.12.07c.22-.38-.49-.49,0-.91.09-.11-.15-.06-.33-.06l.29-.09H4c-.28-.07.68-.35.18-.41L4,1.75c0-.06-.15-.15.08-.18,0,0-.21,0-.11,0l.16,0-.29-.1c.1-.12.62-.07.63-.22a1.34,1.34,0,0,0-.58-.07s-.09.07-.24.09l-.09,0a3,3,0,0,0-1.25.24l.3.06-.22.07,0-.09c-.2.08,0,.09.12.11a1,1,0,0,0-.24.07l.46,0c-.18,0-.37,0-.46.1.22,0,.4-.11.55-.06-.21.09-.38.1-.19.13a.43.43,0,0,1-.25,0c.15,0,.09.13.34.11-.25.1.1.16-.34.24a1,1,0,0,1,.39.07c-.54,0,0,.18-.55.28.48,0,.26.19.54.24,0,0-.11,0-.09,0s-.16.13-.23.19a2.89,2.89,0,0,1,.74,0c-.34.19-.45.09-.79.21.3-.09.34.05.59-.06a1.33,1.33,0,0,1-.4.21c.47-.13.1,0,.4,0-.21.16-.43.16-.26.21A.5.5,0,0,1,2.35,3.56ZM4,5.33H4l0,0Zm.09.16a.13.13,0,0,0,0-.08c.09,0,.18-.09.18-.07S4.18,5.43,4.12,5.49ZM5.66,4.25s0,0,0,.07l0,0h0Z" transform="translate(-0.88 -0.24)" fill="#202020"/><path d="M5.32,4.38h0l0,0,.09,0Z" transform="translate(-0.88 -0.24)" fill="#202020"/><path d="M16.22,15.3h0l0,0Z" transform="translate(-0.88 -0.24)" fill="#202020"/><polygon points="4.24 7.68 4.29 7.64 4.23 7.67 4.24 7.68" fill="#202020"/><path d="M16.26,16.66a.21.21,0,0,0,0,.06Z" transform="translate(-0.88 -0.24)" fill="#202020"/><path d="M16.5,17l0,.11A.36.36,0,0,0,16.5,17Z" transform="translate(-0.88 -0.24)" fill="#202020"/><path d="M16.62,17.31l.09-.08h0Z" transform="translate(-0.88 -0.24)" fill="#202020"/><path d="M12.67,14.31h0C12.6,14.34,12.63,14.33,12.67,14.31Z" transform="translate(-0.88 -0.24)" fill="#202020"/><path d="M14.25,14.72l-.12.08S14.15,14.85,14.25,14.72Z" transform="translate(-0.88 -0.24)" fill="#202020"/><polygon points="10.25 13.32 10.26 13.32 10.25 13.31 10.25 13.32" fill="#202020"/><path d="M14.08,14.75c0,.06,0,.06.05.05S14.12,14.73,14.08,14.75Z" transform="translate(-0.88 -0.24)" fill="#202020"/><path d="M17.4,18.39v0l0,0Z" transform="translate(-0.88 -0.24)" fill="#202020"/><path d="M17.44,18.38h0S17.46,18.36,17.44,18.38Z" transform="translate(-0.88 -0.24)" fill="#202020"/><path d="M17.55,18.35l-.08,0S17.48,18.4,17.55,18.35Z" transform="translate(-0.88 -0.24)" fill="#202020"/><path d="M17.24,18l-.08.07Z" transform="translate(-0.88 -0.24)" fill="#202020"/><path d="M17.14,17.92s-.12.2,0,.19l.06-.05C17,18.14,17.29,17.83,17.14,17.92Z" transform="translate(-0.88 -0.24)" fill="#202020"/><path d="M17.72,16.68v.14c.07-.09.16-.21.21-.19C18.09,16.31,17.78,16.82,17.72,16.68Z" transform="translate(-0.88 -0.24)" fill="#202020"/><path d="M17.6,16.32c.07,0,.11-.11.16-.15C17.66,16.21,17.63,16.23,17.6,16.32Z" transform="translate(-0.88 -0.24)" fill="#202020"/><path d="M15.8,14.63l.17-.19C15.91,14.43,15.9,14.51,15.8,14.63Z" transform="translate(-0.88 -0.24)" fill="#202020"/><polygon points="13.71 15.09 13.64 15.24 13.8 15.08 13.71 15.09" fill="#202020"/><polygon points="14.66 13.52 14.7 13.5 14.59 13.53 14.66 13.52" fill="#202020"/><path d="M12.25,11.31l-.18.26C12.13,11.54,12.35,11.27,12.25,11.31Z" transform="translate(-0.88 -0.24)" fill="#202020"/><path d="M10.69,10.5c.08-.13.11-.24,0-.14S10.65,10.52,10.69,10.5Z" transform="translate(-0.88 -0.24)" fill="#202020"/><polygon points="6.49 6.45 6.59 6.4 6.48 6.41 6.49 6.45" fill="#202020"/><path d="M-4.15,3.36" transform="translate(-0.88 -0.24)" fill="none" stroke="#000" stroke-miterlimit="10"/><path d="M1.65,8.36" transform="translate(-0.88 -0.24)" fill="none" stroke="#000" stroke-miterlimit="10"/><path d="M6.75,9.06" transform="translate(-0.88 -0.24)" fill="none" stroke="#000" stroke-miterlimit="10"/><path d="M9.87,9.8" transform="translate(-0.88 -0.24)" fill="none" stroke="#000" stroke-miterlimit="10"/><path d="M8.5,9.83" transform="translate(-0.88 -0.24)" fill="none" stroke="#000" stroke-miterlimit="10"/><path d="M-4.21,9.56" transform="translate(-0.88 -0.24)" fill="none" stroke="#000" stroke-miterlimit="10"/></svg>